<svg width="236" height="26" viewBox="0 0 236 26" xmlns="http://www.w3.org/2000/svg"><path d="M36.031.079c-8.046 0-13.434 5.487-13.434 12.757 0 7.445 5.387 13.072 13.434 13.072 8.046 0 13.434-5.627 13.434-13.072 0-7.27-5.388-12.757-13.434-12.757zm0 19.153c-3.288 0-5.667-2.586-5.667-6.396 0-3.635 2.379-6.081 5.667-6.081 3.289 0 5.667 2.447 5.667 6.081 0 3.81-2.379 6.396-5.667 6.396z"/><path d="M65.927 15.667c0 2.377-1.365 3.565-3.499 3.565-2.169 0-3.498-1.188-3.498-3.565v-15.168h-7.557v15.623c0 5.732 4.303 9.787 10.985 9.787 6.682 0 11.125-4.054 11.125-9.787v-15.623h-7.557v15.168"/><path d="M109.875 10.109c-2.029-.804-3.498-1.084-3.498-2.307 0-1.083.979-1.363 2.134-1.363 3.079 0 5.807 2.202 5.807 2.202l2.414-5.837s-3.043-2.656-8.291-2.656c-5.597 0-9.62 2.971-9.62 7.759 0 4.474 3.498 6.431 6.682 7.724 2.519 1.048 4.163 1.328 4.163 2.656 0 1.049-.945 1.398-2.064 1.398-3.358 0-6.262-2.586-6.262-2.586l-3.078 5.487s3.568 3.391 9.551 3.391c6.087 0 9.411-3.53 9.411-7.899 0-4.823-3.953-6.641-7.347-7.969"/><path d="M125.72 6.929h7.452v18.559h7.521v-18.559h7.452v-6.431h-22.425v6.431"/><path d="M187.386 15.667c0 2.377-1.364 3.565-3.498 3.565-2.169 0-3.499-1.188-3.499-3.565v-15.168h-7.556v15.623c0 5.732 4.303 9.787 10.985 9.787 6.683 0 11.125-4.054 11.125-9.787v-15.623h-7.557v15.168"/><path d="M205.234 19.162v-18.664h-7.556v24.99h17.352v-6.326h-9.795"/><path d="M150.373.529h10.867c5.486 0 9.225 2.967 9.225 8.203 0 2.862-1.468 5.551-3.809 6.982v.07c.07.14.559.768 1.083 1.711l4.6 7.994h-8.211l-3.674-7.819h-2.533v7.819h-7.547v-24.959m9.783 11.31c1.677 0 2.655-1.012 2.655-2.653 0-1.571-.664-2.583-2.935-2.583h-1.957v5.236h2.236"/><path d="M76.261.598h10.867c5.486 0 9.224 2.967 9.224 8.203 0 2.862-1.468 5.55-3.809 6.982v.07c.07.14.559.768 1.083 1.71l4.368 7.994h-8.211l-3.879-7.82h-2.096v7.82h-7.547v-24.959zm9.783 11.31c1.678 0 2.656-1.012 2.656-2.653 0-1.571-.664-2.583-2.935-2.583h-1.957v5.236h2.236z"/><path d="M23.877.529h-6.979c-1.342 2.907-2.655 5.759-3.966 8.655l-4.667-8.655h-8.186l9.143 16.42-4.013 8.576h7.767l11.69-24.996h-.788"/><path d="M234.882.529h-6.979c-1.342 2.907-2.655 5.759-3.966 8.655l-4.667-8.655h-8.186l9.143 16.42-4.013 8.576h7.767l11.69-24.996h-.788"/></svg>
